# xmcd
#
# Track frame offsets: 
#        150
#        17173
#        31951
#        53892
#        66953
#        95746
#        120459
#        137470
#        158553
#        175069
#
# Disc length: 2595 seconds
#
# Revision: 0
# Processed by: cddbd v1.5.2PL0 Copyright (c) Steve Scherf et al.
# Submitted via: ExactAudioCopy v0.99pb3
#
DISCID=7c0a210a
DTITLE=Hurray For The Riff Raff - Young Blood Blues
DYEAR=2010
DGENRE=Folk/Rock
TTITLE0=Is That You?
TTITLE1=Slow Walk
TTITLE2=Lately in Dm
TTITLE3=I Know You
TTITLE4=Young Blood Blues
TTITLE5=Too Much of a Good Thing
TTITLE6=Take Me
TTITLE7=Calmly
TTITLE8=Little Things
TTITLE9=Sali's Song
EXTD=
EXTT0=
EXTT1=
EXTT2=
EXTT3=
EXTT4=
EXTT5=
EXTT6=
EXTT7=
EXTT8=
EXTT9=
PLAYORDER=
